<?xml version="1.0" encoding="UTF-8" standalone="no"?>
<svg width="64px" height="64px" viewBox="0 0 64 64" version="1.1" xmlns="http://www.w3.org/2000/svg" xmlns:xlink="http://www.w3.org/1999/xlink" xmlns:sketch="http://www.bohemiancoding.com/sketch/ns">
    <!-- Generator: Sketch 3.0.3 (7891) - http://www.bohemiancoding.com/sketch -->
    <title>Road-sign-two-way</title>
    <desc>Created with Sketch.</desc>
    <defs></defs>
    <g id="Page-1" stroke="none" stroke-width="1" fill="none" fill-rule="evenodd" sketch:type="MSPage">
        <g id="Road-sign-two-way" sketch:type="MSLayerGroup" transform="translate(2.000000, 1.000000)" stroke="#6B6C6E" stroke-width="2">
            <path d="M30,5 L50,5 C51.1,5 60,12 60,12 C60,12 51.1,19 50,19 L32,19" id="Shape" sketch:type="MSShapeGroup"></path>
            <path d="M29,19 L9,19 C7.9,19 7,18.1 7,17 L7,7 C7,5.9 7.9,5 9,5 L27,5" id="Shape" sketch:type="MSShapeGroup"></path>
            <path d="M29,40 L9,40 C7.9,40 0,33 0,33 C0,33 7.9,26 9,26 L27,26" id="Shape" sketch:type="MSShapeGroup"></path>
            <path d="M30,26 L50,26 C51.1,26 52,26.9 52,28 L52,38 C52,39.1 51.1,40 50,40 L32,40" id="Shape" sketch:type="MSShapeGroup"></path>
            <path d="M33,40 L33,60 C33,61.1 32.1,62 31,62 L28,62 C26.9,62 26,61.1 26,60 L26,40" id="Shape" sketch:type="MSShapeGroup"></path>
            <path d="M33,19 L33,26" id="Shape" sketch:type="MSShapeGroup"></path>
            <path d="M26,5 L26,2 C26,0.9 26.9,0 28,0 L31,0 C32.1,0 33,0.9 33,2 L33,5" id="Shape" sketch:type="MSShapeGroup"></path>
            <path d="M26,26 L26,19" id="Shape" sketch:type="MSShapeGroup"></path>
        </g>
    </g>
</svg>