<?xml version="1.0" encoding="utf-8"?>
<!-- Generator: Adobe Illustrator 16.0.4, SVG Export Plug-In . SVG Version: 6.00 Build 0)  -->
<!DOCTYPE svg PUBLIC "-//W3C//DTD SVG 1.1//EN" "http://www.w3.org/Graphics/SVG/1.1/DTD/svg11.dtd">
<svg version="1.1" id="Layer_1" xmlns="http://www.w3.org/2000/svg" xmlns:xlink="http://www.w3.org/1999/xlink" x="0px" y="0px"
	 width="226.77px" height="155.91px" viewBox="0 0 226.77 155.91" enable-background="new 0 0 226.77 155.91" xml:space="preserve">
<g>
	<path d="M104.804,16.887H55.52c-3.548,0-6.436,2.888-6.436,6.436v47.111c0,3.547,2.888,6.436,6.436,6.436h49.284
		c3.548,0,6.436-2.889,6.436-6.436v-47.14C111.239,19.774,108.352,16.887,104.804,16.887z M98.396,51.154H85.552v12.844
		c0,2.97-2.393,5.362-5.363,5.362s-5.363-2.393-5.363-5.362V51.154H61.983c-2.97,0-5.363-2.393-5.363-5.363
		c0-2.97,2.393-5.363,5.363-5.363h12.844V29.729c0-2.97,2.393-5.362,5.363-5.362s5.363,2.393,5.363,5.362v10.698h12.844
		c2.97,0,5.363,2.394,5.363,5.363C103.759,48.762,101.339,51.154,98.396,51.154z"/>
	<path d="M171.222,16.887h-49.257c-3.547,0-6.436,2.888-6.436,6.436v47.111c0,3.547,2.889,6.436,6.436,6.436h49.285
		c3.547,0,6.436-2.889,6.436-6.436v-47.14C177.657,19.774,174.77,16.887,171.222,16.887z M164.786,50.714
		c-0.659,0.275-1.375,0.44-2.146,0.44h-32.122c-0.771,0-1.485-0.165-2.146-0.44c-1.897-0.825-3.217-2.695-3.217-4.896
		s1.319-4.07,3.217-4.896c0.66-0.274,1.375-0.439,2.146-0.439h32.122c0.771,0,1.486,0.165,2.146,0.439
		c1.897,0.825,3.218,2.695,3.218,4.896S166.684,49.889,164.786,50.714z"/>
	<path d="M104.804,79.014H55.52c-3.548,0-6.436,2.888-6.436,6.436v47.139c0,3.548,2.888,6.436,6.436,6.436h49.284
		c3.548,0,6.436-2.888,6.436-6.436V85.449C111.239,81.901,108.352,79.014,104.804,79.014z M98.396,125.768
		c-0.028,0.138-0.11,0.247-0.138,0.357c-0.33,0.853-0.88,1.65-1.65,2.255c-0.99,0.771-2.146,1.155-3.3,1.155
		c-1.595,0-3.163-0.688-4.208-2.035l-1.073-1.348l-7.398-9.378l-7.398,9.378l-1.073,1.348c-1.045,1.348-2.64,2.035-4.208,2.035
		c-1.155,0-2.338-0.385-3.3-1.155c-0.77-0.604-1.32-1.402-1.65-2.255c-0.688-1.705-0.467-3.713,0.743-5.28l10.038-12.761
		l-8.525-10.836c-1.238-1.596-1.43-3.658-0.688-5.391c0.33-0.798,0.853-1.54,1.595-2.118c2.338-1.842,5.693-1.43,7.536,0.881
		l0.963,1.237l5.968,7.591l5.968-7.591l0.962-1.237c1.843-2.311,5.198-2.723,7.536-0.881c0.743,0.578,1.265,1.32,1.595,2.118
		c0.743,1.732,0.55,3.795-0.688,5.391l-8.526,10.836l10.038,12.761c0.413,0.522,0.715,1.128,0.908,1.76
		C98.698,123.65,98.698,124.75,98.396,125.768z"/>
	<path d="M171.222,79.014h-49.257c-3.547,0-6.436,2.888-6.436,6.436v47.139c0,3.548,2.889,6.436,6.436,6.436h49.285
		c3.547,0,6.436-2.888,6.436-6.436V85.449C177.657,81.901,174.77,79.014,171.222,79.014z M162.668,121.862h-32.149
		c-0.771,0-1.485-0.165-2.146-0.44c-1.897-0.824-3.217-2.694-3.217-4.895s1.319-4.07,3.217-4.896c0.66-0.275,1.375-0.44,2.146-0.44
		h32.122c0.771,0,1.486,0.165,2.146,0.44c1.897,0.825,3.218,2.695,3.218,4.896s-1.32,4.07-3.218,4.895
		C164.154,121.697,163.411,121.862,162.668,121.862z M164.786,106.406c-0.659,0.274-1.375,0.439-2.146,0.439h-32.122
		c-0.771,0-1.485-0.165-2.146-0.439c-1.897-0.825-3.217-2.695-3.217-4.896s1.319-4.07,3.217-4.896c0.66-0.275,1.375-0.44,2.146-0.44
		h32.122c0.771,0,1.486,0.165,2.146,0.44c1.897,0.825,3.218,2.695,3.218,4.896S166.684,105.581,164.786,106.406z"/>
</g>
</svg>
