<?xml version="1.0" encoding="utf-8"?>
<!-- Generator: Adobe Illustrator 17.0.0, SVG Export Plug-In . SVG Version: 6.00 Build 0)  -->
<!DOCTYPE svg PUBLIC "-//W3C//DTD SVG 1.1//EN" "http://www.w3.org/Graphics/SVG/1.1/DTD/svg11.dtd">
<svg version="1.1" id="Layer_1" xmlns:sketch="http://www.bohemiancoding.com/sketch/ns"
	 xmlns="http://www.w3.org/2000/svg" xmlns:xlink="http://www.w3.org/1999/xlink" x="0px" y="0px" width="64px" height="38px"
	 viewBox="0 0 64 38" enable-background="new 0 0 64 38" xml:space="preserve">
<title>Cash-Yen</title>
<desc>Created with Sketch.</desc>
<g id="Page-1" sketch:type="MSPage">
	<g id="Cash-Yen" transform="translate(1.000000, 1.000000)" sketch:type="MSLayerGroup">
		<path id="Shape" sketch:type="MSShapeGroup" fill="none" stroke="#6B6C6E" stroke-width="2" d="M59.9,36c1.1,0,2-0.9,2-2V2
			c0-1.1-0.9-2-2-2H2C0.9,0,0,0.9,0,2v32c0,1.1,0.9,2,2,2H59.9L59.9,36z"/>
		<path id="Shape_1_" sketch:type="MSShapeGroup" fill="none" stroke="#6B6C6E" stroke-width="2" d="M5,4.1h20.3"/>
		<path id="Shape_2_" sketch:type="MSShapeGroup" fill="none" stroke="#6B6C6E" stroke-width="2" d="M5,32h20.3"/>
		<path id="Shape_3_" sketch:type="MSShapeGroup" fill="none" stroke="#6B6C6E" stroke-width="2" d="M36.2,4.1h20.7"/>
		<path id="Shape_4_" sketch:type="MSShapeGroup" fill="none" stroke="#6B6C6E" stroke-width="2" d="M36.2,32h20.7"/>
		<circle id="Oval" sketch:type="MSShapeGroup" fill="none" stroke="#6B6C6E" stroke-width="2" cx="31" cy="18" r="15">
		</circle>
		<g id="Group" transform="translate(25.000000, 10.000000)" sketch:type="MSShapeGroup">
			<path id="Shape_5_" fill="none" stroke="#6B6C6E" stroke-width="2" d="M0,0.2l5.9,6.9L12,0.2"/>
			<path id="Shape_6_" fill="none" stroke="#6B6C6E" stroke-width="2" d="M5.9,7.1V17"/>
			<path id="Shape_7_" fill="none" stroke="#6B6C6E" stroke-width="2" d="M2.1,9.1H10"/>
			<path id="Shape_8_" fill="none" stroke="#6B6C6E" stroke-width="2" d="M2.1,12.1H10"/>
		</g>
	</g>
</g>
</svg>
