<?xml version="1.0" encoding="UTF-8" standalone="no"?>
<svg width="65px" height="64px" viewBox="0 0 65 64" version="1.1" xmlns="http://www.w3.org/2000/svg" xmlns:xlink="http://www.w3.org/1999/xlink" xmlns:sketch="http://www.bohemiancoding.com/sketch/ns">
    <!-- Generator: Sketch 3.0.3 (7891) - http://www.bohemiancoding.com/sketch -->
    <title>Tag-sale</title>
    <desc>Created with Sketch.</desc>
    <defs></defs>
    <g id="Page-1" stroke="none" stroke-width="1" fill="none" fill-rule="evenodd" sketch:type="MSPage">
        <g id="Tag-sale" sketch:type="MSLayerGroup" transform="translate(1.000000, 1.000000)" stroke-width="2" stroke="#6B6C6E">
            <g id="Group" sketch:type="MSShapeGroup">
                <path d="M39,61.2 C38.2,62 37,62 36.2,61.2 L10.8,35.8 C8,33 3.1,14.1 8.7,8.4 C14.3,2.8 33.3,7.7 36.1,10.5 L61.5,35.9 C62.3,36.7 62.3,37.9 61.5,38.7 L39,61.2 L39,61.2 Z" id="Shape"></path>
                <circle id="Oval" cx="15" cy="15" r="4"></circle>
                <path d="M5.1,10.5 C4.7,10.1 4.2,9.6 3.7,9.2 C-3.2,2.3 2.3,2.2 2.3,2.2 C2.3,2.2 2.4,-3.3 9.3,3.6 C15.9,10.2 15.8,12.6 14.2,14.1" id="Shape"></path>
            </g>
            <g id="Group" transform="translate(18.000000, 17.000000)" sketch:type="MSShapeGroup">
                <path d="M1.1,7.1 C-0.3,8.5 -0.2,10.9 1.3,12.5 C2.8,14 5.3,14.1 6.7,12.7 C8.8,10.6 7,6.8 7,6.8 C7,6.8 5.2,3 7.3,0.9 C8.7,-0.5 11.1,-0.4 12.7,1.1 C14.3,2.6 14.4,5.1 12.9,6.5" id="Shape"></path>
                <path d="M23.7,34.9 L19.6,30.8 L31,19.4 L35.1,23.6" id="Shape"></path>
                <path d="M28.7,28.6 L25.9,25.8" id="Shape"></path>
                <path d="M18.1,29.3 L14,25.2 L25.9,13.3" id="Shape"></path>
                <path d="M5.7,17.9 L19.6,8.4 L21,9.7 L11.4,23.6" id="Shape"></path>
                <path d="M10.8,15 L14.6,18.7" id="Shape"></path>
            </g>
        </g>
    </g>
</svg>