<?xml version="1.0" encoding="utf-8"?>
<!-- Generator: Adobe Illustrator 16.0.0, SVG Export Plug-In . SVG Version: 6.00 Build 0)  -->
<!DOCTYPE svg PUBLIC "-//W3C//DTD SVG 1.1//EN" "http://www.w3.org/Graphics/SVG/1.1/DTD/svg11.dtd">
<svg version="1.1" id="Layer_1" xmlns="http://www.w3.org/2000/svg" xmlns:xlink="http://www.w3.org/1999/xlink" x="0px" y="0px"
	 width="512px" height="512px" viewBox="0 0 512 512" enable-background="new 0 0 512 512" xml:space="preserve">
<path d="M448,448l64,32l-64,32v-16H16V64H0L32,0l32,64H48v400h400V448z M192,288h-32v-96h-32v96H96v96h96V288z M288,416h32v-96h32
	V192h-32v-32h-32v32h-32v128h32V416z M480,96V0h-32v96h-32v192h32v64h32v-64h32V96H480z"/>
</svg>
