<?xml version="1.0" encoding="utf-8"?>
<!-- Generator: Adobe Illustrator 16.0.0, SVG Export Plug-In . SVG Version: 6.00 Build 0)  -->
<!DOCTYPE svg PUBLIC "-//W3C//DTD SVG 1.1//EN" "http://www.w3.org/Graphics/SVG/1.1/DTD/svg11.dtd">
<svg version="1.1" id="Layer_1" xmlns="http://www.w3.org/2000/svg" xmlns:xlink="http://www.w3.org/1999/xlink" x="0px" y="0px"
	 width="512px" height="512px" viewBox="0 0 512 512" enable-background="new 0 0 512 512" xml:space="preserve">
<path d="M512,480v32H0V0h32h32v32H32v64h32v32H32v64h32v32H32v64h32v32H32v64h32v32H32v64H512z M144,416c26.5,0,48-21.5,48-48
	c0-10.375-3.359-19.906-8.953-27.75l61.203-61.188C252.094,284.625,261.641,288,272,288c13.063,0,24.875-5.25,33.531-13.75
	l52.781,38.406C354.406,319.594,352,327.469,352,336c0,26.5,21.5,48,48,48s48-21.5,48-48c0-18.219-10.281-33.906-25.25-42.031
	L471,100.938l30.938,7.75L480,32l-55.469,57.344l30.969,7.719L407.563,288.75c-2.469-0.375-4.969-0.75-7.563-0.75
	c-12.188,0-23.188,4.688-31.656,12.188l-53.531-38.938C318.031,254.813,320,247.688,320,240c0-26.5-21.5-48-48-48
	c-26.516,0-48,21.5-48,48c0,10.375,3.359,19.875,8.938,27.75l-61.203,61.188C163.891,323.375,154.359,320,144,320
	c-26.516,0-48,21.5-48,48S117.484,416,144,416z"/>
</svg>
